Genre:Comedy | Horror 
Language:English  http://www.imdb.com/title/tt0936471/
Source:1080p.BluRay.x264-SWAGGERHD


Format                           : Matroska
File size                        : 1.77 GiB
Duration                         : 1h 36mn
Overall bit rate                 : 2 628 Kbps


Video
Format settings, CABAC           : Yes
Format settings, ReFrames        : 4 frames
Codec ID                         : V_MPEG4/ISO/AVC
Duration                         : 1h 36mn
Bit rate                         : 2 300 Kbps
Width                            : 1 280 pixels
Height                           : 720 pixels
Display aspect ratio             : 16:9
Frame rate mode                  : Variable
Frame rate                       : 23.976 fps
Color space                      : YUV
Chroma subsampling               : 4:2:0
Bit depth                        : 8 bits
Scan type                        : Progressive
Bits/(Pixel*Frame)               : 0.104
Stream size                      : 1.48 GiB (83%)
Writing library                  : x264 core 106 r1732 b20059a

Audio
ID                               : 2
Format                           : AC-3
Format/Info                      : Audio Coding 3
Mode extension                   : CM (complete main)
Codec ID                         : A_AC3
Duration                         : 1h 36mn
Bit rate mode                    : Constant
Bit rate                         : 384 Kbps
Channel(s)                       : 6 channels
Channel positions                : Front: L C R, Side: L R, LFE
Sampling rate                    : 48.0 KHz
Bit depth                        : 16 bits
Video delay                      : -1mn 5s
Stream size                      : 265 MiB (15%)
Language                         : English

   
Plot:
 Spoof horror in which a group of college kids do a semester abroad in Romania and realise that if the partying doesn't kill them, the vampires just might!
 
http://shareimage.org/images/tunh3p3uawk9h2m1edqg.png 
http://shareimage.org/images/jxqvdsvemr3op2kmy5hf.png 
http://shareimage.org/images/964k0wtl6hnyb2tkii9.png